# Tiled2Unity generated file. Do not modify by hand.
# Wavefront file for 'mapa_pueblo_rpg_mesh_0004.obj'

# Vertices (Count = 84)
v -15 -5 0
v -16 -5 0
v -16 -4 0
v -15 -4 0
v -16 -5 0
v -17 -5 0
v -17 -4 0
v -16 -4 0
v -15 -6 0
v -16 -6 0
v -16 -5 0
v -15 -5 0
v -16 -6 0
v -17 -6 0
v -17 -5 0
v -16 -5 0
v -15 -7 0
v -16 -7 0
v -16 -6 0
v -15 -6 0
v -16 -7 0
v -17 -7 0
v -17 -6 0
v -16 -6 0
v -14 -11 0
v -15 -11 0
v -15 -10 0
v -14 -10 0
v -15 -11 0
v -16 -11 0
v -16 -10 0
v -15 -10 0
v -16 -11 0
v -17 -11 0
v -17 -10 0
v -16 -10 0
v -16 -13 0
v -17 -13 0
v -17 -12 0
v -16 -12 0
v -17 -13 0
v -18 -13 0
v -18 -12 0
v -17 -12 0
v -7 -14 0
v -8 -14 0
v -8 -13 0
v -7 -13 0
v -16 -14 0
v -17 -14 0
v -17 -13 0
v -16 -13 0
v -17 -14 0
v -18 -14 0
v -18 -13 0
v -17 -13 0
v -5 -17 0
v -6 -17 0
v -6 -16 0
v -5 -16 0
v -15 -17 0
v -16 -17 0
v -16 -16 0
v -15 -16 0
v -16 -18 0
v -17 -18 0
v -17 -17 0
v -16 -17 0
v -11 -19 0
v -12 -19 0
v -12 -18 0
v -11 -18 0
v -12 -19 0
v -13 -19 0
v -13 -18 0
v -12 -18 0
v -11 -20 0
v -12 -20 0
v -12 -19 0
v -11 -19 0
v -12 -20 0
v -13 -20 0
v -13 -19 0
v -12 -19 0

# Texture cooridinates (Count = 47)
vt 0.325 0.8333333
vt 0.35 0.8333333
vt 0.35 0.8611111
vt 0.325 0.8611111
vt 0.375 0.8333333
vt 0.375 0.8611111
vt 0.325 0.8055556
vt 0.35 0.8055556
vt 0.375 0.8055556
vt 0.325 0.7777778
vt 0.35 0.7777778
vt 0.375 0.7777778
vt 0.1 0.5833334
vt 0.125 0.5833334
vt 0.125 0.6111111
vt 0.1 0.6111111
vt 0.15 0.5833334
vt 0.15 0.6111111
vt 0.175 0.5833334
vt 0.175 0.6111111
vt 0.1 0.9444444
vt 0.125 0.9444444
vt 0.125 0.9722222
vt 0.1 0.9722222
vt 0.15 0.9444444
vt 0.15 0.9722222
vt 0.075 0.6666666
vt 0.1 0.6666666
vt 0.1 0.6944444
vt 0.075 0.6944444
vt 0.1 0.9166667
vt 0.125 0.9166667
vt 0.15 0.9166667
vt 0.05 0.6388889
vt 0.075 0.6388889
vt 0.05 0.6666666
vt 0.1 0.6388889
vt 0.025 0.75
vt 0.05 0.75
vt 0.05 0.7777778
vt 0.025 0.7777778
vt 0.325 0.75
vt 0.35 0.75
vt 0.375 0.75
vt 0.325 0.7222222
vt 0.35 0.7222222
vt 0.375 0.7222222

# Normal
vn 0 0 -1

# Mesh description
g mapa_pueblo_rpg_mesh_0004

# Faces
f 1/1/1 2/2/1 3/3/1 4/4/1
f 5/2/1 6/5/1 7/6/1 8/3/1
f 9/7/1 10/8/1 11/2/1 12/1/1
f 13/8/1 14/9/1 15/5/1 16/2/1
f 17/10/1 18/11/1 19/8/1 20/7/1
f 21/11/1 22/12/1 23/9/1 24/8/1
f 25/13/1 26/14/1 27/15/1 28/16/1
f 29/14/1 30/17/1 31/18/1 32/15/1
f 33/17/1 34/19/1 35/20/1 36/18/1
f 37/21/1 38/22/1 39/23/1 40/24/1
f 41/22/1 42/25/1 43/26/1 44/23/1
f 45/27/1 46/28/1 47/29/1 48/30/1
f 49/31/1 50/32/1 51/22/1 52/21/1
f 53/32/1 54/33/1 55/25/1 56/22/1
f 57/34/1 58/35/1 59/27/1 60/36/1
f 61/35/1 62/37/1 63/28/1 64/27/1
f 65/38/1 66/39/1 67/40/1 68/41/1
f 69/42/1 70/43/1 71/11/1 72/10/1
f 73/43/1 74/44/1 75/12/1 76/11/1
f 77/45/1 78/46/1 79/43/1 80/42/1
f 81/46/1 82/47/1 83/44/1 84/43/1

